<?xml version="1.0" encoding="UTF-8"?>
<svg id="Layer_1" data-name="Layer 1" xmlns="http://www.w3.org/2000/svg" viewBox="0 0 588.37 285.01">
  <defs>
    <style>
      .cls-1 {
        fill: #009245;
      }

      .cls-2 {
        fill: #fff;
      }
    </style>
  </defs>
  <g id="LeA0w3.tif">
    <g>
      <path class="cls-1" d="M183.41,95.28c3.98,1.86,6.55-2,9.95-3.44,53.96-22.87,95.55,17.63,79.19,72.22-9.73,32.45-42.64,41.8-73.03,33.19-3.85-1.09-20.09-9.5-22.12-7.26,17.59,20.34,30.05,43.57,12.37,68.66-17.42,24.7-56.42,30.94-80.1,11.47,12.99-18.44,22.02-39.23,27.39-61.2,1.06-4.35,6.38-21.62-2.03-17.97-1.36,7.39-3.47,14.68-6.28,21.63-4.69,11.62-17.47,35.92-30.81,37.94-7.08,1.07-13.76-1.74-17.65-7.78-11.6-18.01,10.38-39.16,17.38-54.76-11.39,5.35-24.61,10.95-37.37,11.94-81.3,6.34-80.1-127.19,1.76-113.33,11.29,1.91,21.43,7.6,32.63,9.71,1.23-1.27-7.64-12.99-8.84-15.56C70.23,47.27,89.35,6.89,126.36.92c45.4-7.32,81.81,29.88,65.02,74.99-1.28,3.43-9.43,17.32-7.97,19.37ZM162.46,106.28h-14.45c-20.66,0-39.92,21.08-56.4,28.3-11.64,5.1-13.85-3.27-21.35-9.34-8.78-7.11-17.72-11.29-29.37-10-.56,12.73,9.68,21.81,19.91,27.41-10.44,6.48-21.23,18.25-18.84,31.31,1.86,1.65,17.67-4.24,20.53-5.72,6.65-3.46,16.27-14.43,22.73-14.59,7.02-.18,18.13,10.06,24.56,13.78,24.33,14.09,52.54,17.9,79.57,9.59l-6.16-6.76c-4.77-5.24-8.16-11.66-9.37-18.64-.79-4.58-.71-9.25.89-13.65,1.04-2.85,4.29-7.39,7.67-6.77-6.42,15.29-1.95,34.03,12.63,42.63,14.02-6.26,25.05-17.99,33.96-30.19-11.34-14.93-21.42-24.12-38.64-31.86-2.26-1.01-7.62-1.93-8.93-3.03-1.06-.89-3.4-7.79-5.47-10.47-12.49-16.18-37.39-15.16-52.67-3.79-2.3,1.71-7.96,5.39-7.47,8.04,1.47,7.89,9.73.81,13.98-.53,10.52-3.31,24.91-5.48,32.68,4.28Z"/>
      <path class="cls-2" d="M199.05,134.36c-6.29,1.84-3.63,10.58,2.54,9.63,7.89-1.22,4.64-11.73-2.54-9.63Z"/>
      <path class="cls-1" d="M199.05,134.36c7.18-2.1,10.43,8.41,2.54,9.63-6.17.96-8.83-7.79-2.54-9.63Z"/>
    </g>
  </g>
  <g>
    <path class="cls-1" d="M505.57,95.25c-3.4,1.44-5.97,5.29-9.95,3.44-1.46-2.06,6.69-15.95,7.97-19.37,16.8-45.1-19.62-82.3-65.02-74.99-37.01,5.97-56.13,46.35-40.51,79.82,1.2,2.57,10.08,14.29,8.84,15.56-11.2-2.11-21.34-7.8-32.63-9.71-81.85-13.85-83.06,119.68-1.76,113.33,12.76-1,25.98-6.59,37.37-11.94-7,15.6-28.98,36.75-17.38,54.76,3.89,6.04,10.57,8.85,17.65,7.78,13.34-2.02,26.12-26.32,30.81-37.94,2.81-6.95,4.91-14.24,6.28-21.63,8.41-3.65,3.09,13.63,2.03,17.97-5.37,21.96-14.4,42.76-27.39,61.2,23.69,19.46,62.69,13.23,80.1-11.47,17.69-25.09,5.22-48.32-12.36-68.66,2.03-2.23,18.27,6.17,22.12,7.26,30.39,8.6,63.3-.74,73.03-33.19,16.36-54.59-25.23-95.09-79.19-72.22ZM507.23,177.23l-5.66,3.19c-27.03,8.31-55.24,4.5-79.57-9.59-6.43-3.73-17.54-13.96-24.56-13.78-6.45.16-16.07,11.13-22.73,14.59-2.86,1.49-18.67,7.38-20.53,5.72-2.4-13.06,8.4-24.83,18.84-31.31-10.23-5.6-20.47-14.68-19.91-27.41,11.65-1.29,20.59,2.89,29.37,10,7.5,6.07,9.71,14.43,21.35,9.34,15.41-6.75,33.25-25.61,52.39-28.04l4.01-.26s15.64-1.12,33.4,2.47c1.31,1.1,6.67,2.01,8.93,3.03,17.21,7.73,27.3,16.93,38.64,31.86-8.91,12.2-19.94,23.93-33.96,30.19Z"/>
    <path class="cls-1" d="M511.26,137.76c-6.29,1.84-3.63,10.58,2.54,9.63,7.89-1.22,4.64-11.73-2.54-9.63Z"/>
  </g>
</svg>