<?xml version="1.0" encoding="UTF-8"?>
<svg id="Layer_1" data-name="Layer 1" xmlns="http://www.w3.org/2000/svg" viewBox="0 0 980.24 556.81">
  <defs>
    <style>
      .cls-1 {
        fill: #009245;
      }
    </style>
  </defs>
  <g>
    <path d="M799.9,204.14c.27-18.85,5.44-38.69,17.97-53.38,50.88-59.63,144.65-22.73,141.82,54.79,4.99-4.98,6.36-18.87,13.8-20.11,3.33-.56,5.87.92,6.75,4.19l-78.52,189.87-14.49-28.63,44.17-87.33-23.68,12.63c-25.01,8.39-49.78,5.31-72.12-8.66-2.41-1.51-4.52-5.17-7.42-3.97l133.72,265.53c.64,2.49-.97,5.81-2.52,7.78-2.95,3.74-17.56,18.31-21.25,19.49-4.17,1.33-6.44-2.12-8.53-5.35l-150.17-357.08c-1.75-4.82,4.3-10.66,8.8-8.19,5.96,3.28,6.87,13.69,11.67,18.43ZM838.14,167.73c-42.98,52.69,36.27,121.48,83,67.88,45.31-51.98-36.92-124.38-83-67.88Z"/>
    <path d="M857.87,409.22l15.87,38.53-44.81,106.13c-.98,1.91-4.86,3.44-6.76,2.77-2.05-.72-23.35-22.08-24.05-24.05l.02-2.12,59.73-121.26Z"/>
  </g>
  <g id="b9y4nV.tif">
    <g>
      <path class="cls-1" d="M878.77,202.4v24.55c.04,5.04-2.37,9.63-6.86,12.01-8.38,4.44-18.63-1.57-18.72-10.98-5.8-.23-10.82-4.43-12-10.11-1.61-7.79,3.96-14.93,11.81-15.48h25.77Z"/>
      <path class="cls-1" d="M878.77,200.21h-25.65c-4.31-.26-8.3-2.59-10.47-6.33-4.87-8.4.95-18.83,10.54-19.25-.04-5.33,3.75-10.27,8.8-11.85,8.73-2.72,16.99,3.91,16.78,12.88v24.55Z"/>
      <path class="cls-1" d="M906.54,174.51c.26,0,.52-.02.78.01,15.89,2.13,15.4,23.74-.11,25.56h-26.13c.05-7.93-.07-15.88,0-23.82.03-3.18.17-5.34,1.97-8.13,6.75-10.46,23.06-5.95,23.48,6.37Z"/>
      <path class="cls-1" d="M906.54,228.1c-.37,10.31-12.3,15.87-20.57,9.55-3.89-2.97-4.83-6.66-4.88-11.31-.07-7.94.04-15.88,0-23.82h26.13c7.75.7,13.15,7.78,11.58,15.47-.63,3.06-2.6,6.09-5.14,7.77-2.15,1.41-4.5,2.3-7.1,2.34Z"/>
    </g>
  </g>
  <g id="_29hfeM" data-name="29hfeM">
    <g>
      <path d="M298.8,5.38c160.03,35.23,255.08,220.88,179.39,368.89-48.52,94.86-153.79,148.73-258.95,132.07C55.95,480.47-39.32,311.69,15.61,157.43,55.44,45.58,184.4-19.81,298.8,5.38ZM306.89,51.8C124.88,11.18-18.15,183.89,60.72,353.81c67.45,145.33,257.38,177.67,364.48,56.05,109.57-124.42,43.68-321.91-118.32-358.06Z"/>
      <path class="cls-1" d="M246.44,176.54c11.77-11.55,34.31-10.85,42.92,4.26,8.58,15.05,5.16,30.38-3.33,44.44l-29.51,41.8c1.88.4,2.36-1.09,3.46-2.05,20.37-17.58,45.18-51.58,76.56-39.4,18.09,7.03,23.6,27.39,10.98,42.48-4.4,5.27-10.18,6.27-14.81,10.75,22.72,4.89,31.62,32.42,14.67,49.18-22.83,22.58-62.15-2.83-81.23-19.59-4.72-4.15-10.05-11.58-14.21-14.81-1.02-.79-1.35-1.88-3.03-1.43-2.54,7.5,2.3,13.21,7.29,18.38,12.23,12.65,27.99,18.7,37.73,35.24,22.9,38.89-31.73,72.76-58.44,34.91-11.26-15.96-9.35-28.13-7.18-45.98.13-1.08,1.05-3.46-.77-3.21-4.89,13.3-17.77,26.84-18.35,41.79-.87,22.85,32.45,36.71,13.63,33.57-18.24-3.05-35.17-20.73-36.46-32.89-3.41-32.18,37.31-48.33,42.59-78.5l-29.3,24.27c-16.61,11.54-37.33,26.21-57.06,12.53-13-9.01-14.58-34.76-3.31-45.41,2.09-1.97,8.48-4.79,8.43-6.6-21.14-9.88-22.45-44.17.46-52.71,27.74-10.33,57.27,21.38,74.8,39.02,1.06,1.06,1.8,2.31,3.54,1.92-11.79-25.02-51.53-55.71-35.93-86.49,10.63-20.98,38.41-14.03,49.11,3.26.77.01,5.44-7.48,6.72-8.73Z"/>
      <path d="M193.57,388.81l18.15,10.46c94.74,42.72,194.01-33.93,194.27-134.14.26-99.87-97.36-174.53-192.95-145.45-103.64,31.52-117.56,188.09-93.65,240.77,46.68,102.87,63.53,121.3,63.53,121.3-2.1-.38-33.64-7.55-34.83-9.18-100.81-138.53-85.16-255.89-28.42-317.58,101.33-110.16,290.17-65.95,310.33,89.17,11.59,89.19-51.43,181.29-145.58,184.98-35.99,1.41-65.84-15.62-90.86-40.33Z"/>
    </g>
  </g>
</svg>