<svg width="212" height="173" xmlns="http://www.w3.org/2000/svg" xmlns:xlink="http://www.w3.org/1999/xlink" xml:space="preserve" overflow="hidden"><defs><clipPath id="clip0"><rect x="0" y="0" width="212" height="173"/></clipPath><clipPath id="clip1"><rect x="0" y="0" width="212" height="173"/></clipPath><clipPath id="clip2"><rect x="0" y="0" width="211" height="173"/></clipPath><clipPath id="clip3"><rect x="0" y="0" width="211" height="174"/></clipPath><clipPath id="clip4"><rect x="0" y="0" width="211" height="174"/></clipPath></defs><g clip-path="url(#clip0)"><g clip-path="url(#clip1)"><g clip-path="url(#clip2)"><g clip-path="url(#clip3)"><g clip-path="url(#clip4)"><path d="M40.6196 58.5349C38.6398 60.2682 37.7731 59.2596 34.9566 58.5349 31.251 57.5861 27.0374 54.269 26.0288 53.096 25.6702 52.6851 25.8271 51.953 26.0288 51.3777 28.3448 45.5504 31.1314 39.865 34.6279 34.6577 42.166 23.4438 52.7823 14.1425 65.0271 8.38241 68.531 6.73133 70.6528 6.08882 73.9773 3.94466 74.8514 3.38434 78.3777 2.23381 79.461 2.07692 79.7524 2.0321 80.8805 1.82291 80.873 2.30852L79.7225 2.60736 75.7554 4.67682C78.7513 4.07167 81.7994 2.78666 84.7355 2.11428 106.282-2.8539 130.271 0.86663 148.336 13.7017 153.625 17.4596 158.907 20.6646 163.278 25.5208 170.823 33.9106 181.425 49.6071 183.681 60.7463 184.241 63.5105 183.965 66.6857 184.525 69.4724 183.755 68.6506 183.897 68.1724 182.956 67.373 182.388 66.8874 182.03 66.9845 183.218 66.5811 182.56 65.3036 182.306 66.7156 181.903 66.8501 180.61 65.9087 180.767 63.9439 180.08 62.8307 179.9 62.5393 179.392 62.5244 179.071 61.9416 178.675 61.2394 178.227 57.7355 177.308 57.6683 177.144 57.6533 177.196 57.9223 177.181 57.9223 177.039 57.9297 176.703 57.9596 176.658 57.9223 176.621 57.8774 176.658 56.839 176.673 56.7792 176.74 56.57 177.218 56.6298 177.189 56.4879 176.867 55.2028 175.896 55.8005 176.135 56.0844 176.217 56.1815 176.763 55.8678 176.658 56.3459 175.014 56.9212 176.27 57.1154 176.307 57.1901 176.486 57.5338 176.001 59.028 177.181 58.9757 177.226 59.9544 177.891 60.8061 178.16 61.8072 178.615 63.5479 179.146 65.4455 179.549 67.1115 179.587 67.2535 179.534 67.4627 179.549 67.6345L179.295 67.769 179.549 67.9035C179.527 68.0006 179.579 68.1201 179.549 68.1649 178.959 68.3891 178.959 67.5523 178.765 66.8501 178.1 64.4594 177.487 63.1968 176.606 60.9928 176.479 60.6791 176.688 60.3204 176.658 60.3055 176.494 60.2084 176.001 60.3653 175.874 60.2906 175.754 60.2233 176.165 59.7377 176.075 59.5509 175.254 57.6683 174.462 55.1804 173.505 53.1409 173.139 52.3564 172.661 51.8783 172.198 51.2582 171.877 50.8323 172.004 50.018 171.159 50.0628 171.159 48.479 170.143 46.9026 169.172 45.6251 168.814 45.1544 166.722 42.7039 166.176 43.2419 166.124 44.4372 167.611 44.3476 167.23 45.6027 167.312 45.7073 167.962 45.2964 168.014 45.3337 168.119 45.4159 168.918 47.3808 169.21 47.6945 169.673 48.1951 171.137 47.8066 169.337 48.8824 170.226 48.6284 170.255 48.8824 170.382 49.8014L169.867 49.6594C169.994 49.9433 170.293 50.3243 170.39 50.5858 170.539 51.0116 170.823 52.461 170.98 52.6179 171.167 52.8047 172.265 52.9541 172.489 53.6041 172.377 53.9701 171.787 53.365 171.705 53.4696 171.653 53.5368 171.72 55.046 171.742 55.1281 171.877 55.5166 172.459 55.6138 172.713 56.0022 173.319 56.9062 174.738 61.4187 174.992 62.6439 175.141 63.3761 174.992 64.0709 175.089 64.6162 175.089 64.6387 175.104 64.6536 175.127 64.691 175.403 65.3036 175.552 65.7668 175.635 66.0731 175.493 65.834 175.44 65.2961 175.224 65.2812 174.365 65.2214 173.296 66.6633 172.631 66.7529 172.19 66.8127 171.451 66.4242 170.816 66.596 170.539 66.6708 170.741 67.2087 170.517 67.1265 169.942 66.9024 167.073 58.9383 166.415 57.5861 161.47 47.3957 155.478 38.2513 146.221 31.3406 144.331 29.9286 139.468 27.5753 138.228 26.2081 137.794 25.7374 137.936 24.7961 137.316 25.1547 137.256 25.192 137.966 25.8196 137.189 25.6702 126.394 19.1256 114.343 16.3614 101.739 16.2194 79.4013 15.9579 55.4494 31.6768 44.9751 51.303M118.138 3.10791C118.302 4.84118 119.259 4.21362 120.491 4.28832L118.138 3.10791ZM126.535 10.9823C125.243 10.6013 123.965 10.3099 122.598 10.4593L125.744 11.4007 126.535 10.9823ZM147.267 21.4715C147.843 20.9859 147.163 19.9474 146.61 19.6112 146.206 19.3647 145.87 19.5739 145.549 19.3946 142.157 17.482 137.719 14.2023 133.894 13.2012 133.274 13.0368 132.684 13.0517 132.049 13.0816 132.004 13.6345 133.267 14.3143 133.648 14.4936 135.867 15.5396 138.325 16.2643 140.618 17.4895 141.418 17.9153 146.961 21.7181 147.26 21.4715ZM138.758 19.2302C138.653 19.1705 136.539 18.0125 137.309 18.9687 137.959 19.5589 139.034 19.7532 139.707 20.1865 140.14 20.4629 143.614 23.3019 143.861 23.0404 144.503 22.383 140.857 20.7842 140.663 20.6572 140.155 20.3285 139.378 19.5589 138.765 19.2228ZM147.663 21.4715 147.663 21.733C147.835 21.6433 147.835 21.5612 147.663 21.4715ZM145.952 24.1013C145.878 24.0266 144.197 22.9732 144.122 23.0479 143.524 23.6157 145.654 24.049 145.437 24.6168 145.893 24.8185 146.199 24.3628 145.952 24.1013ZM154.619 28.2925C154.671 28.4046 154.611 28.6511 154.746 28.8229 154.962 29.1143 155.276 29.0022 155.403 29.0769 155.822 29.7867 156.232 30.6533 156.972 31.1763 157.017 29.8315 156.277 29.585 155.403 29.0769 155.351 28.9873 155.411 28.7258 155.276 28.5465 155.06 28.2551 154.746 28.3672 154.619 28.2925 154.514 28.0833 154.589 27.6649 154.238 27.4931 153.782 27.6276 153.08 26.4322 152.781 26.7236 152.482 27.015 154.432 28.1879 154.619 28.2925ZM160.386 35.1135C160.439 33.8658 159.512 32.9917 158.825 32.0803L157.241 30.6533 158.332 32.8498 160.386 35.1135ZM163.278 38.7892C163.524 39.7828 163.479 39.9397 164.301 40.7092 164.682 41.0678 165.392 40.2908 165.392 40.2161 165.355 39.3644 163.957 38.8265 163.801 37.9973L164.062 39.3047C164.017 39.357 163.405 38.8863 163.278 38.7817 163.128 38.1616 163.315 37.5565 162.852 37.0186L160.655 35.1135C160.364 35.4347 162.844 38.4231 163.278 38.7817ZM34.4784 40.5822C34.3963 40.3954 35.0014 39.5811 34.4187 39.9621L33.3727 41.927C34.1124 41.5982 35.3077 41.546 34.852 40.6793 34.8221 40.6196 34.5083 40.6345 34.4859 40.5747Z" fill="#BE3928" fill-rule="nonzero" fill-opacity="1" transform="matrix(1 0 0 1.00092 0.178284 3.40579e-15)"/><path d="M180.857 118.549C177.965 124.847 174.566 131.347 170.681 137.099 159.721 153.319 141.716 164.959 123.084 170.323 100.312 176.882 71.6165 170.136 52.6627 155.792 41.5161 147.357 31.886 135.859 26.5368 122.875L42.562 119.969C42.8907 120.125 43.2493 120.342 43.4884 120.618 47.8514 125.788 51.43 132.012 56.4505 136.771 76.8462 156.113 108.814 161.014 133.79 147.701 145.048 141.694 151.855 134.993 158.915 124.548 160.312 122.479 161.47 120.081 163.061 118.205 163.674 117.921 164.563 117.966 165.228 118.019 167.79 118.213 171.436 119.177 173.842 118.967 174.096 118.945 174.409 118.557 174.925 118.519 175.739 118.467 180.618 118.22 180.842 118.534ZM69.2184 148.821C68.6655 148.478 68.292 148.014 67.4926 148.186L70.0327 149.718C70.9217 149.651 70.3465 149.636 70.0327 149.441 69.689 149.217 69.3752 148.926 69.2184 148.821ZM80.3426 154.223 77.9818 153.7C78.2134 154.215 80.0213 154.903 80.3426 154.223ZM80.7386 154.484 80.7386 154.746C80.9104 154.656 80.9104 154.574 80.7386 154.484ZM81.6575 154.753C81.2914 154.566 80.9552 154.918 81.1345 155.007 81.5006 155.194 81.8368 154.843 81.6575 154.753Z" fill="#BF3828" fill-rule="nonzero" fill-opacity="1" transform="matrix(1 0 0 1.00092 0.178284 3.40579e-15)"/><path d="M14.0753 72.3412C13.7092 74.8066 13.4402 77.2571 13.2535 79.6852 13.0742 82.1132 12.9546 84.5562 12.9173 87.0067 15.5844 84.7729 18.0349 82.2925 20.2612 79.5507 22.4876 76.8163 24.5495 73.8503 26.4472 70.6528 27.8517 72.274 29.4505 73.7009 31.2659 74.9411 33.0739 76.1813 35.0761 77.2646 37.2651 78.1835 35.0761 80.0512 32.79 81.7695 30.4142 83.3384 28.0385 84.9073 25.5955 86.2671 23.1002 87.4176 24.6915 90.0847 26.5592 92.595 28.7109 94.9334 30.8625 97.2718 33.2009 99.5355 35.7261 101.71 31.1464 102.703 27.0224 104.242 23.3617 106.327 22.2111 103.278 20.7842 100.447 19.0808 97.847 17.3774 95.2397 15.3304 92.8639 12.9173 90.7197 12.9173 92.8938 12.9621 95.0454 13.0517 97.1747 13.1414 99.3039 13.2833 101.456 13.4925 103.63 12.3121 103.704 11.1616 103.809 10.0559 103.943 8.9502 104.085 7.8445 104.265 6.7388 104.489 5.6331 104.713 4.53487 104.982 3.42169 105.288 2.31599 105.594 1.17294 105.938 0.00747095 106.319 2.36829 98.6614 3.55617 90.8916 3.55617 83.0097 3.55617 79.1174 3.27228 75.1802 2.70448 71.2131 4.07914 71.6688 5.4015 72.005 6.67903 72.2291 7.95656 72.4533 9.27145 72.5653 10.6312 72.5653 11.184 72.5653 11.7443 72.5504 12.3196 72.5205 12.8874 72.4906 13.4776 72.4234 14.0902 72.3263Z" fill="#231F20" fill-rule="nonzero" fill-opacity="1" transform="matrix(1 0 0 1.00092 0.178284 3.40579e-15)"/><path d="M64.3249 78.2283C63.8169 78.6392 63.3312 79.0651 62.883 79.5058 62.4273 79.9541 62.0014 80.4248 61.5905 80.9179 62.9652 81.1793 64.2576 81.5977 65.4829 82.173 66.7081 82.7482 67.7765 83.4729 68.6804 84.3545 69.5844 85.2286 70.3016 86.2446 70.8395 87.4101 71.37 88.5681 71.6389 89.8606 71.6389 91.2726 71.6389 92.8788 71.37 94.3282 70.8395 95.6132 70.3091 96.9057 69.5695 98.0562 68.6281 99.0723 67.6868 100.088 66.5736 100.962 65.2886 101.702 64.0036 102.442 62.614 103.047 61.1049 103.517 59.6032 103.988 58.0194 104.347 56.3534 104.578 54.6874 104.81 53.0139 104.929 51.318 104.929 50.7203 104.929 50.1002 104.922 49.4577 104.9 48.8152 104.877 48.1951 104.847 47.59 104.802 46.9848 104.758 46.4245 104.698 45.9015 104.616 45.386 104.534 44.9527 104.436 44.6016 104.317 45.0125 103.981 45.401 103.644 45.7745 103.301 46.1481 102.957 46.4843 102.614 46.7906 102.262 45.401 102.001 44.101 101.605 42.8833 101.082 41.6655 100.559 40.5971 99.8791 39.6782 99.0573 38.7593 98.2355 38.0346 97.2643 37.4967 96.1437 36.9663 95.0305 36.6973 93.7455 36.6973 92.3036 36.6973 90.6077 37.0036 89.0836 37.6312 87.7164 38.2513 86.3492 39.103 85.1389 40.1788 84.0706 41.2621 83.0023 42.5246 82.0908 43.989 81.3362 45.4458 80.5742 47.0147 79.9466 48.6957 79.4536 50.3766 78.9605 52.1173 78.5944 53.9403 78.3628 55.7557 78.1312 57.5637 78.0117 59.3567 78.0117 60.1038 78.0117 60.8658 78.0266 61.6428 78.064 62.4198 78.1013 63.2416 78.1536 64.1082 78.2283L64.3249 78.2283ZM62.1359 89.7411C62.1359 88.5009 61.8669 87.4848 61.3365 86.7004 60.8061 85.9159 60.0963 85.2884 59.2222 84.8177 59.0579 85.1987 58.9084 85.5872 58.759 85.9906 58.6096 86.3941 58.4826 86.805 58.3631 87.2308 57.3395 86.9394 56.4804 86.7452 55.7931 86.6406 55.0983 86.536 54.523 86.4837 54.0523 86.4837 53.1334 86.4837 52.207 86.6406 51.2731 86.9469 50.3393 87.2532 49.5025 87.694 48.7554 88.2693 48.0083 88.8445 47.4032 89.5468 46.925 90.3686 46.4544 91.1904 46.2153 92.1243 46.2153 93.1553 46.2153 94.1863 46.4693 95.0529 46.9699 95.8822 47.4704 96.704 48.1353 97.466 48.9497 98.1683 49.0841 97.72 49.1813 97.2568 49.2485 96.7862 49.3157 96.323 49.3606 95.8373 49.3904 95.3443 50.4737 95.8373 51.4226 96.181 52.2593 96.3753 53.0886 96.562 53.8207 96.6592 54.4483 96.6592 55.412 96.6592 56.3534 96.5023 57.2723 96.1885 58.1912 95.8747 59.013 95.419 59.7377 94.8213 60.4624 94.2236 61.0377 93.4989 61.4784 92.6473 61.9192 91.7956 62.1359 90.8243 62.1359 89.7485Z" fill="#231F20" fill-rule="nonzero" fill-opacity="1" transform="matrix(1 0 0 1.00092 0.178284 3.40579e-15)"/><path d="M94.9259 103.547C94.5748 103.547 94.2909 103.547 94.0593 103.54 93.8351 103.54 93.6484 103.532 93.5139 103.532 93.3794 103.532 93.2673 103.532 93.2001 103.525 93.1254 103.525 93.0582 103.517 93.0059 103.517 91.3697 103.517 89.7261 103.637 88.0601 103.869 86.3941 104.1 84.7056 104.489 82.9798 105.027 82.95 104.69 82.935 104.317 82.935 103.913L82.935 102.8C82.935 99.5056 83.189 96.3304 83.7045 93.2898 84.2125 90.2491 85.0792 87.2756 86.2895 84.3694 84.2051 84.601 82.0908 84.9746 79.9616 85.4751 77.8324 85.9757 75.733 86.6481 73.6561 87.4773 73.9176 86.424 74.1193 85.4378 74.2612 84.5039 74.4032 83.57 74.4704 82.6661 74.4704 81.792 74.4704 80.9776 74.4181 80.1483 74.3061 79.3041 74.194 78.4674 74.0371 77.6157 73.8354 76.7565 76.3755 77.2496 78.9306 77.668 81.5081 78.0042 84.0855 78.3404 86.663 78.5496 89.248 78.6392 89.6589 78.0117 90.0772 77.3766 90.5031 76.7341 90.9364 76.0916 91.3996 75.4566 91.8927 74.829 91.818 75.4865 91.7657 76.129 91.7283 76.7565 91.691 77.3841 91.6611 78.0266 91.6312 78.684L91.7657 78.684C93.4168 78.684 95.0753 78.6243 96.7488 78.5122 98.4223 78.3927 100.208 78.1984 102.12 77.922 101.829 78.43 101.583 78.9754 101.388 79.5432 101.194 80.111 101.089 80.8133 101.089 81.6425 101.089 82.1132 101.134 82.6287 101.231 83.204 101.328 83.7792 101.493 84.4441 101.724 85.1838 100.118 84.8177 98.4596 84.5413 96.7563 84.3545 95.0454 84.1677 93.3271 84.0706 91.5938 84.0706 91.6835 87.3802 91.9898 90.6525 92.5277 93.8874 93.0582 97.1223 93.865 100.35 94.9483 103.57Z" fill="#231F20" fill-rule="nonzero" fill-opacity="1" transform="matrix(1 0 0 1.00092 0.178284 3.40579e-15)"/><path d="M131.085 78.2283C130.577 78.6392 130.092 79.0651 129.643 79.5058 129.188 79.9541 128.762 80.4248 128.351 80.9179 129.726 81.1793 131.018 81.5977 132.243 82.173 133.469 82.7482 134.537 83.4729 135.441 84.3545 136.345 85.2361 137.062 86.2446 137.6 87.4101 138.138 88.5756 138.399 89.8606 138.399 91.2726 138.399 92.8788 138.13 94.3282 137.6 95.6132 137.07 96.8982 136.33 98.0562 135.389 99.0723 134.447 100.088 133.334 100.962 132.049 101.702 130.764 102.442 129.374 103.047 127.865 103.517 126.364 103.988 124.78 104.347 123.114 104.578 121.448 104.81 119.774 104.929 118.078 104.929 117.481 104.929 116.861 104.922 116.218 104.9 115.576 104.877 114.956 104.847 114.35 104.802 113.745 104.758 113.185 104.698 112.662 104.616 112.139 104.534 111.713 104.436 111.362 104.317 111.773 103.981 112.161 103.644 112.535 103.301 112.908 102.957 113.245 102.614 113.551 102.262 112.161 102.001 110.861 101.605 109.644 101.082 108.426 100.559 107.358 99.8791 106.439 99.0573 105.52 98.2355 104.795 97.2643 104.257 96.1437 103.727 95.0305 103.458 93.7455 103.458 92.3036 103.458 90.6077 103.764 89.0836 104.392 87.7164 105.012 86.3492 105.863 85.1389 106.939 84.0706 108.022 83.0023 109.285 82.0908 110.749 81.3362 112.206 80.5742 113.775 79.9466 115.456 79.4536 117.137 78.9605 118.878 78.5944 120.701 78.3628 122.516 78.1312 124.324 78.0117 126.117 78.0117 126.864 78.0117 127.626 78.0266 128.403 78.064 129.18 78.1013 130.002 78.1536 130.869 78.2283L131.085 78.2283ZM128.896 89.7411C128.896 88.5009 128.627 87.4848 128.097 86.7004 127.566 85.9159 126.857 85.2884 125.983 84.8177 125.826 85.1987 125.669 85.5872 125.519 85.9906 125.37 86.3941 125.243 86.805 125.123 87.2308 124.1 86.9394 123.248 86.7452 122.553 86.6406 121.859 86.536 121.283 86.4837 120.813 86.4837 119.894 86.4837 118.967 86.6406 118.034 86.9469 117.1 87.2532 116.263 87.694 115.516 88.2693 114.769 88.8445 114.164 89.5468 113.685 90.3686 113.215 91.1904 112.976 92.1243 112.976 93.1553 112.976 94.1863 113.23 95.0529 113.73 95.8822 114.231 96.704 114.896 97.466 115.71 98.1683 115.845 97.72 115.942 97.2568 116.009 96.7862 116.076 96.323 116.121 95.8373 116.151 95.3443 117.234 95.8373 118.183 96.181 119.02 96.3753 119.849 96.562 120.581 96.6592 121.209 96.6592 122.172 96.6592 123.114 96.5023 124.033 96.1885 124.952 95.8747 125.773 95.419 126.498 94.8213 127.223 94.2236 127.798 93.4989 128.239 92.6473 128.68 91.7956 128.896 90.8243 128.896 89.7485Z" fill="#231F20" fill-rule="nonzero" fill-opacity="1" transform="matrix(1 0 0 1.00092 0.178284 3.40579e-15)"/><path d="M172.362 99.0648C172.332 100.043 172.101 100.918 171.675 101.68 171.249 102.442 170.651 103.122 169.904 103.704 169.15 104.287 168.276 104.788 167.267 105.206 166.259 105.624 165.168 105.96 163.987 106.214 162.807 106.469 161.567 106.663 160.267 106.782 158.967 106.902 157.652 106.969 156.33 106.969 155.291 106.969 154.268 106.939 153.244 106.872 152.221 106.805 151.219 106.708 150.248 106.573 149.277 106.439 148.336 106.282 147.447 106.102 146.558 105.923 145.728 105.714 144.951 105.482L145.303 104.847C144.847 104.997 144.391 105.131 143.92 105.266 143.45 105.4 142.987 105.542 142.516 105.706 143.3 103.547 143.98 101.388 144.548 99.2292 145.116 97.07 145.564 94.8811 145.885 92.6622 144.936 92.1243 144.092 91.5565 143.345 90.9513 142.598 90.3537 141.978 89.7784 141.485 89.2256 142.232 89.4273 142.987 89.6215 143.763 89.7934 144.54 89.9652 145.332 90.137 146.147 90.2939 146.192 89.5916 146.229 88.9043 146.266 88.2244 146.304 87.5446 146.319 86.8573 146.319 86.155L146.319 85.8039C145.504 86.0653 144.705 86.3418 143.935 86.6331 143.158 86.9245 142.404 87.2308 141.657 87.5521 141.873 86.805 142.045 86.1027 142.157 85.4303 142.277 84.7579 142.329 84.1005 142.329 83.458 142.329 82.4494 142.195 81.4782 141.933 80.5368 141.672 79.5955 141.291 78.7139 140.798 77.8996 142.359 77.6829 143.771 77.4962 145.034 77.3542 146.296 77.2123 147.469 77.0927 148.545 77.0031 149.621 76.9134 150.637 76.8611 151.586 76.8312 152.534 76.8014 153.483 76.7864 154.432 76.7864 155.231 76.7864 156.143 76.8014 157.159 76.8387 158.175 76.8761 159.228 76.9508 160.319 77.0554 161.41 77.16 162.508 77.3318 163.599 77.5559 164.69 77.7801 165.728 78.0789 166.699 78.4524 167.671 78.826 168.545 79.2892 169.314 79.842 170.091 80.3949 170.704 81.0673 171.152 81.8592L172.945 80.873C172.99 81.1793 173.02 81.4931 173.042 81.8218 173.065 82.1506 173.072 82.4569 173.072 82.7557 173.072 83.6746 172.945 84.5712 172.698 85.4453 172.452 86.3194 172.101 87.1636 171.645 87.9704 171.189 88.7773 170.651 89.5468 170.024 90.279 169.396 91.0111 168.702 91.6835 167.947 92.2961 168.679 92.6771 169.292 93.0955 169.8 93.5662 170.3 94.0368 170.719 94.515 171.047 95.0081 171.376 95.5012 171.63 95.9868 171.802 96.4649 171.974 96.9356 172.108 97.3689 172.183 97.7424 172.265 98.1235 172.31 98.4298 172.325 98.6763 172.34 98.9229 172.347 99.0424 172.347 99.0573ZM159.012 83.458C158.414 83.458 157.824 83.4804 157.249 83.5252 156.673 83.57 156.076 83.6298 155.463 83.6971 155.418 84.8625 155.388 86.028 155.366 87.186 155.343 88.344 155.321 89.4945 155.291 90.6301 156.853 90.3387 158.115 89.7261 159.079 88.7922 160.043 87.8584 160.648 86.4688 160.894 84.6309L162.777 84.347C162.224 84.0557 161.634 83.8315 161.014 83.6821 160.394 83.5327 159.729 83.4505 159.012 83.4505ZM157.57 96.0241C156.793 96.0241 156.038 95.9793 155.291 95.8896 155.291 96.5023 155.291 97.0999 155.314 97.6752 155.329 98.2505 155.351 98.8332 155.381 99.4159 155.964 99.6027 156.509 99.7297 157.024 99.7895 157.532 99.8492 158.018 99.8791 158.466 99.8791 159.094 99.8791 159.751 99.8044 160.446 99.6625 161.141 99.5205 161.776 99.2815 162.351 98.9527 162.926 98.624 163.405 98.1907 163.771 97.6528 164.144 97.1149 164.331 96.45 164.331 95.658 164.331 95.3667 164.286 95.0081 164.197 94.5822 163.158 95.0529 162.082 95.404 160.969 95.658 159.856 95.9046 158.72 96.0316 157.562 96.0316Z" fill="#231F20" fill-rule="nonzero" fill-opacity="1" transform="matrix(1 0 0 1.00092 0.178284 3.40579e-15)"/><path d="M209.837 95.3891C209.224 95.6805 208.619 95.9643 208.021 96.2333 207.423 96.5023 206.818 96.7637 206.206 97.0103 207.55 99.4309 209.03 101.717 210.651 103.861 208.387 103.861 206.228 104.085 204.174 104.526 202.119 104.967 200.027 105.662 197.913 106.596 198.07 106.214 198.174 105.826 198.212 105.423 198.249 105.019 198.264 104.608 198.264 104.182 198.264 103.48 198.197 102.711 198.07 101.874 197.935 101.037 197.741 100.156 197.48 99.2366 196.867 99.3263 196.254 99.386 195.642 99.4234 195.029 99.4608 194.431 99.4757 193.849 99.4757 192.81 99.4757 191.794 99.4159 190.793 99.2889 189.792 99.1619 188.836 98.9602 187.917 98.6688 187.67 99.7521 187.446 100.858 187.237 101.986 187.035 103.114 186.826 104.28 186.624 105.475 185.877 105.094 185.063 104.75 184.174 104.444 183.412 104.197 182.538 103.966 181.537 103.742 180.535 103.517 179.482 103.413 178.376 103.413 177.428 103.413 176.419 103.495 175.358 103.652 174.297 103.809 173.117 104.078 171.832 104.436 172.825 103.458 173.752 102.464 174.626 101.448 175.493 100.432 176.292 99.4533 177.009 98.5119 177.726 97.5706 178.376 96.689 178.937 95.8672 179.497 95.0454 179.968 94.3207 180.349 93.7081 179.923 93.2001 179.534 92.6473 179.176 92.0645 178.817 91.4818 178.481 90.8542 178.16 90.1818 178.742 90.4732 179.318 90.7422 179.886 90.9812 180.453 91.2203 181.014 91.4444 181.574 91.6461 182.246 90.4657 182.956 89.2779 183.696 88.075 184.443 86.8797 185.235 85.7142 186.079 84.5712 185.907 84.1453 185.683 83.6672 185.414 83.1293 185.145 82.5914 184.854 82.031 184.54 81.4558 184.226 80.8805 183.897 80.3052 183.546 79.7374 183.195 79.1697 182.852 78.6467 182.515 78.1611 183.92 78.5421 185.317 78.8409 186.729 79.0576 188.141 79.2742 189.538 79.4237 190.943 79.4984 191.742 78.8409 192.586 78.2433 193.46 77.6904 194.334 77.1376 195.253 76.6594 196.217 76.2336 195.911 76.7416 195.612 77.272 195.321 77.8099 195.029 78.3479 194.745 78.9007 194.469 79.4536 195.201 79.3788 195.933 79.2967 196.68 79.1995 197.427 79.1024 198.197 78.9754 199.004 78.8185 199.542 80.7909 200.132 82.7109 200.774 84.5786 201.417 86.4464 202.112 88.2842 202.851 90.0922 203.494 89.7261 204.129 89.3526 204.764 88.9641 205.399 88.5756 206.026 88.1572 206.654 87.709 207.11 89.2405 207.595 90.6525 208.118 91.93 208.641 93.2076 209.216 94.3581 209.844 95.3667ZM195.171 93.0656C194.663 91.93 194.103 90.7795 193.498 89.6215 192.892 88.4635 192.242 87.2906 191.54 86.1102 190.681 88.4187 189.889 90.8692 189.179 93.4616 189.441 93.4915 189.702 93.5064 189.956 93.5064L190.733 93.5064C191.48 93.5064 192.22 93.4765 192.952 93.4093 193.684 93.342 194.431 93.23 195.171 93.0731Z" fill="#231F20" fill-rule="nonzero" fill-opacity="1" transform="matrix(1 0 0 1.00092 0.178284 3.40579e-15)"/></g></g></g></g></g></svg>